<svg id="Layer_1" data-name="Layer 1" xmlns="http://www.w3.org/2000/svg" viewBox="0 0 366.58 107.03"><defs><style>.cls-1{fill:#ffffff;}</style></defs><path class="cls-1" d="M89.48,52a37.48,37.48,0,0,1-18.8,32.51,36.61,36.61,0,0,1-6.23,2.86c-1.54.46-2.9.77-4.1,1.2a8.49,8.49,0,0,0-1.88.87,11.3,11.3,0,0,0-3.24,3.05c.05-.83.15-1.92.34-3.15.53-3.55,1.7-8.29,3.94-11.62a26.48,26.48,0,0,1,5.93-5.89l.17-.14a9.08,9.08,0,0,0,.89-.64,23.95,23.95,0,1,0-29,0,10.33,10.33,0,0,0,.88.64l.18.14a26.48,26.48,0,0,1,5.93,5.89c2.23,3.33,3.41,8.07,3.94,11.62.18,1.23.29,2.32.34,3.15a11.39,11.39,0,0,0-3.25-3.05,8.21,8.21,0,0,0-1.87-.87c-1.2-.43-2.57-.74-4.1-1.2a36.61,36.61,0,0,1-6.23-2.86A37.5,37.5,0,1,1,89.48,52Z"/><path class="cls-1" d="M158.45,62.46a22.06,22.06,0,0,1-1.58,8.47A19.7,19.7,0,0,1,145.81,82a22.08,22.08,0,0,1-8.38,1.56H125.05a22.26,22.26,0,0,1-8.4-1.56A19.93,19.93,0,0,1,110,77.61a20.47,20.47,0,0,1-4.41-6.68,21.88,21.88,0,0,1-1.6-8.47V52.82a21.92,21.92,0,0,1,1.6-8.45A20.16,20.16,0,0,1,110,37.69a20.4,20.4,0,0,1,6.68-4.38,22.07,22.07,0,0,1,8.4-1.58h12.38a21.9,21.9,0,0,1,8.38,1.58,20.46,20.46,0,0,1,6.67,4.38,19.81,19.81,0,0,1,4.39,6.68,22.1,22.1,0,0,1,1.58,8.45Zm-9.14-9.64a13.23,13.23,0,0,0-.86-4.9A10.82,10.82,0,0,0,146,44.16a11,11,0,0,0-3.77-2.43,13.18,13.18,0,0,0-4.83-.86H125.05a13.26,13.26,0,0,0-4.86.86,11.07,11.07,0,0,0-3.78,2.43A10.75,10.75,0,0,0,114,47.92a13.44,13.44,0,0,0-.86,4.9v9.64a13.4,13.4,0,0,0,.86,4.9,10.66,10.66,0,0,0,2.45,3.76,10.93,10.93,0,0,0,3.78,2.43,13.26,13.26,0,0,0,4.86.86h12.31a13.35,13.35,0,0,0,4.87-.86A11.12,11.12,0,0,0,146,71.12a10.63,10.63,0,0,0,2.44-3.76,13.2,13.2,0,0,0,.86-4.9Z"/><path class="cls-1" d="M203.28,83.55H178.49a14.54,14.54,0,0,1-4.15-.67,12.08,12.08,0,0,1-4.16-2.19,12.24,12.24,0,0,1-3.2-4,12.69,12.69,0,0,1-1.28-6V58.34A13.46,13.46,0,0,1,166,55.6a13.67,13.67,0,0,1,.94-2.86A13.23,13.23,0,0,1,168.56,50,10.8,10.8,0,0,1,171,47.73a12.34,12.34,0,0,1,3.28-1.59,14.11,14.11,0,0,1,4.22-.59h24.79v9.14H178.49a3.73,3.73,0,0,0-2.72.91,3.79,3.79,0,0,0-.93,2.81V70.72a3.68,3.68,0,0,0,.95,2.74,3.75,3.75,0,0,0,2.77,1h24.72Z"/><path class="cls-1" d="M220.12,83.55H211V29.48h9.14Zm35.36,0H242.3L223.88,65.76a4.24,4.24,0,0,1-1.44-3.51A4.57,4.57,0,0,1,223,60.4a4.25,4.25,0,0,1,1.21-1.46l16.7-13.46h14.62L234,62.81Z"/><path class="cls-1" d="M302.73,83.55h-9.14V62.46a8,8,0,0,0-.61-3.22,7.51,7.51,0,0,0-1.67-2.44,7.33,7.33,0,0,0-2.48-1.57,8.59,8.59,0,0,0-3.08-.54h-16V83.55h-9.14V50.08A4.44,4.44,0,0,1,262,46.87a4.75,4.75,0,0,1,1.48-1,4.5,4.5,0,0,1,1.79-.35h20.6a18.93,18.93,0,0,1,3.64.38,17.61,17.61,0,0,1,3.8,1.25,18.81,18.81,0,0,1,3.59,2.18,14.89,14.89,0,0,1,3,3.2A15.47,15.47,0,0,1,302,56.9a18.41,18.41,0,0,1,.77,5.56Z"/><path class="cls-1" d="M352.09,70.72A14.29,14.29,0,0,1,351.5,75a12.33,12.33,0,0,1-1.59,3.3,10.58,10.58,0,0,1-2.28,2.43,13.68,13.68,0,0,1-2.73,1.63,14,14,0,0,1-2.88.93,13.69,13.69,0,0,1-2.76.3H322.77a14.48,14.48,0,0,1-4.14-.67,12.12,12.12,0,0,1-4.17-2.19,12.37,12.37,0,0,1-3.2-4,12.69,12.69,0,0,1-1.28-6V58.34a12.58,12.58,0,0,1,1.28-6,12.37,12.37,0,0,1,3.2-4,12.12,12.12,0,0,1,4.17-2.19,14.48,14.48,0,0,1,4.14-.67h16.49a13,13,0,0,1,6,1.26,12.07,12.07,0,0,1,4,3.18,12.69,12.69,0,0,1,2.2,4.17,14.32,14.32,0,0,1,.68,4.18ZM343,58.41A3.72,3.72,0,0,0,342,55.6a3.78,3.78,0,0,0-2.74-.91H322.84a3.8,3.8,0,0,0-2.77.93,3.62,3.62,0,0,0-.95,2.72V70.72a3.68,3.68,0,0,0,.95,2.74,3.77,3.77,0,0,0,2.77,1h16.42a3.71,3.71,0,0,0,2.78-1,3.79,3.79,0,0,0,.91-2.74Z"/></svg>